<?xml version="1.0" encoding="UTF-8"?>
<svg id="Capa_1" xmlns="http://www.w3.org/2000/svg" version="1.1" viewBox="0 0 1280 380.3">
  <!-- Generator: Adobe Illustrator 29.4.0, SVG Export Plug-In . SVG Version: 2.1.0 Build 152)  -->
  <defs>
    <style>
      .st0 {
        fill: #af7c58;
      }

      .st1 {
        fill: #2d2a26;
      }

      .st2 {
        fill: #008996;
      }
    </style>
  </defs>
  <polygon class="st2" points="70.5 34.9 35.4 69.7 .3 104.6 35.1 139.8 70 174.9 104.9 210 140 175.2 105.1 140 70.3 104.9 105.4 70 140.3 105.2 175.2 140.3 210.3 105.4 175.4 70.3 140.6 35.1 105.7 0 70.5 34.9"/>
  <polygon class="st1" points="139.8 245.2 174.9 210.3 210 175.4 175.2 140.3 140.3 105.1 105.4 70 70.3 104.9 105.2 140 140 175.1 104.9 210 70 174.9 35.1 139.7 0 174.6 34.9 209.7 69.7 244.9 104.6 280 139.8 245.2"/>
  <polygon class="st2" points="600.7 23.8 564.1 23.8 552.9 62.1 589.4 62.1 600.7 23.8"/>
  <path class="st2" d="M639.3,70h-130.9c-17,0-30.9,13.9-30.9,30.9v77.9c0,17.1,13.9,30.9,30.9,30.9h130.9c17.1,0,30.9-13.9,30.9-30.9v-77.9c0-17-13.9-30.9-30.9-30.9M634,173.6h-120.5v-67.4h120.5v67.4Z"/>
  <polygon class="st2" points="718.3 69.9 682.4 69.9 682.4 209.8 822.1 209.8 822.1 173.7 718.3 173.7 718.3 69.9"/>
  <rect class="st2" x="834.2" y="70" width="36.1" height="139.7"/>
  <path class="st2" d="M1044.1,70h-161.6v139.7h161.6c17.2,0,31.1-13.9,31.1-30.9v-77.9c0-17-14-30.9-31.1-30.9M1038.8,173.6h-120.5v-67.4h120.5v67.4Z"/>
  <path class="st2" d="M1249.1,70h-130.9c-17,0-30.9,13.9-30.9,30.9v77.9c0,17.1,13.9,30.9,30.9,30.9h130.9c17,0,30.9-13.9,30.9-30.9v-77.9c0-17-13.9-30.9-30.9-30.9M1243.7,173.6h-120.5v-67.4h120.5v67.4Z"/>
  <path class="st2" d="M434.5,121.8h-125.9v-15.7h152.5,0v-5.2c0-17-14-30.9-31.1-30.9h-126.4c-17.1,0-30.9,13.9-30.9,30.9v26.1c0,17,13.9,30.9,30.9,30.9h121.3c2.3,0,4.1,1.9,4.1,4.2v7.4c0,2.3-1.9,4.1-4.2,4.1h-148v5.2c0,17.1,14,30.9,31.1,30.9h126.5c17,0,30.9-13.9,30.9-30.9v-26.1c0-17-13.9-30.9-30.9-30.9"/>
  <polygon class="st0" points="858.8 380.3 879.3 380.3 879.3 370.6 870.9 370.6 870.9 292.3 879.3 292.3 879.3 282.6 858.8 282.6 858.8 380.3"/>
  <polygon class="st0" points="1133.7 282.6 1133.7 292.3 1142.1 292.3 1142.1 370.6 1133.7 370.6 1133.7 380.3 1154.2 380.3 1154.2 282.6 1133.7 282.6"/>
  <polygon class="st0" points="961 341.8 960.7 341.8 949.4 300 933.6 300 922.4 341.8 922.2 341.8 912.2 300 895.9 300 913.7 362.9 928.8 362.9 941.3 320.4 941.5 320.4 953.9 362.9 968.9 362.9 986.9 300 971.1 300 961 341.8"/>
  <path class="st0" d="M1021.8,300h-23.1v62.8h15.2v-23.7h7.5c13.1,0,24.9-5.2,24.9-19.8s-10.8-19.3-24.6-19.3M1020.3,327.1h-6.4v-14.8h6.7c5.4,0,10.6,1.2,10.6,7.2s-5.2,7.6-10.9,7.6"/>
  <path class="st0" d="M1092.3,350.6c-10.5,0-17.8-7.8-17.8-19.3s7.5-19.3,18.1-19.3,9.8,1.9,12.7,5.8l10.3-10.3c-5.2-6-14.7-9.2-23.5-9.2-19.2,0-34.1,12.9-34.1,33s14.5,33.2,33.8,33.2,18.9-4,24.4-10.4l-10.6-9.9c-2.7,3.7-7.4,6.4-13.3,6.4"/>
  <path class="st0" d="M417.3,280c-5.2,0-12.3.4-16.6.6-1.1.1-2.1,1.2-2.1,2.3v85.9c0,1.2.9,2.3,2.1,2.3h1.2c1.2,0,2.1-1.1,2.1-2.3v-36.4c3.4.2,8.5.5,13.3.5,20.7,0,33.1-6.9,33.1-26.1v-2.1c0-17.5-12.4-24.7-33.1-24.7M445.1,306.8c0,15.5-8.9,21.3-27.8,21.3s-9.5-.2-13.3-.5v-42.5c3.5-.2,8.2-.4,13.3-.4,18.1,0,27.8,4.9,27.8,20v2.1Z"/>
  <path class="st0" d="M514.7,305.7h-.7c-1.2,0-2.3,1.1-2.3,2.3v54c-6.1,2.8-13,5-19.3,5h-.2c-9,0-16.2-4.8-16.2-18.5v-40.5c0-1.2-1-2.3-2.2-2.3h-.8c-1.3,0-2.3,1.1-2.3,2.3v40.5c0,16.8,9.8,23.3,21.4,23.3s13.3-2,19.6-5v1.9c0,1.3.9,2.4,2.2,2.4h1c1.3,0,2.2-1.1,2.2-2.4v-60.7c0-1.2-1.1-2.3-2.3-2.3"/>
  <path class="st0" d="M564.2,305.1c-16.1,0-24.6,12.3-24.6,29.1v8c0,23,12.3,29.6,27.4,29.6s12.4-.9,18.3-2.1c1.8-.4,2.3-1,2.3-2.3v-.9c0-1.2-.9-1.7-1.8-1.7s-.5.1-.7.1c-6,1.2-12.7,2.1-18,2.1-12.2,0-22.1-4.4-22.1-24.9v-2.6h41.2c1.2,0,2.3-1,2.3-2.3v-3.3c0-17.3-7.4-29-24.2-29M583.1,334.8h-38.1v-.6c0-14.5,5.7-24.4,19.3-24.4s18.9,8.9,18.9,24.2v.7Z"/>
  <path class="st0" d="M633.3,305.1c-6,0-10.7,1.6-16.9,5.6v-2.6c0-1.3-.8-2.4-2.2-2.4h-1c-1.3,0-2.2,1.1-2.2,2.4v60.7c0,1.2,1.1,2.3,2.3,2.3h.7c1.2,0,2.3-1.1,2.3-2.3v-53.4c7.2-4.5,12.3-5.6,16.9-5.6s3.3-.4,3.3-1.9v-1c0-1.5-1.3-1.8-3.3-1.8"/>
  <path class="st0" d="M686.5,305.7h-14.5v-12.5c0-1.2-.7-2.3-2-2.3h-1.3c-1.3,0-2.1,1.1-2.1,2.3v12.5h-12.1c-1.3,0-2.3.6-2.3,1.8v1.2c0,1.2,1,1.9,2.3,1.9h12.1v48c0,10.5,5.1,13.2,13.8,13.2s4.5-.1,6.3-.4c1.7-.2,2.1-1,2.1-2v-.7c0-1.1-.7-1.7-2.6-1.7h-5.8c-5.4,0-8.4-1.1-8.4-8.4v-48h14.5c1.3,0,2.3-.7,2.3-1.9v-1.2c0-1.2-1-1.8-2.3-1.8"/>
  <path class="st0" d="M731.3,305.1c-8,0-12.2.5-17.3,1.1-1.8.2-2.8.8-2.8,2.2v.7c0,1.3,1.2,1.8,2.3,1.8h.5c5.7-.6,9.3-1.1,17.3-1.1,11.8,0,15.4,5,15.4,17.7v4.4h-9.4c-22.2,0-30.1,6.2-30.1,18.8v1.6c0,15.2,9.5,19.6,18.6,19.6s14.7-2.9,20.7-6.2v3c0,1.3,1.1,2.4,2.4,2.4h.6c1.3,0,2.4-1.1,2.4-2.4v-41.2c0-13.2-4.3-22.4-20.7-22.4M746.6,360.9c-8.2,4.4-14,6.2-20.8,6.2s-13.3-3.5-13.3-14.9v-1.6c0-10.4,6.3-14,24.7-14h9.4v24.2Z"/>
  <path class="st0" d="M799.9,337.3l-8.2-4.5c-7.4-4.1-11.8-7.3-11.8-12.7,0-8.6,6-10.2,13.8-10.2s13.8,1,16.9,1.3h.4c1.2,0,2.2-.5,2.2-1.9v-1c0-1.1-.9-1.8-2.6-2.1-4.1-.5-8.6-1.1-17.4-1.1s-18.6,3.7-18.6,15,5.6,12.3,14.7,17.3l7.8,4.3c10.2,5.6,12.9,8.3,12.9,13.3,0,9.9-6.7,12.2-15.5,12.2s-12.1-1-17.9-1.9h-.7c-1.1,0-2,.5-2,1.7v1.3c0,1.1,1,1.6,2.7,2,4.4.8,12.2,1.7,17.7,1.7,11.3,0,21.1-3.9,21.1-16.9s-5.4-12.1-15.5-17.7"/>
</svg>