<?xml version="1.0" encoding="UTF-8"?>
<svg id="Capa_1" xmlns="http://www.w3.org/2000/svg" version="1.1" viewBox="0 0 1280 383.2">
  <!-- Generator: Adobe Illustrator 29.4.0, SVG Export Plug-In . SVG Version: 2.1.0 Build 152)  -->
  <defs>
    <style>
      .st0 {
        fill: #008996;
      }

      .st1 {
        fill: #af7c58;
      }

      .st2 {
        fill: #fff;
      }
    </style>
  </defs>
  <polygon class="st0" points="70.6 34.9 35.5 69.7 .3 104.6 35.2 139.7 70.1 174.9 104.9 210 140.1 175.1 105.2 140 70.3 104.9 105.5 70 140.3 105.2 175.2 140.3 210.3 105.4 175.5 70.3 140.6 35.1 105.7 0 70.6 34.9"/>
  <polygon class="st2" points="139.7 245.1 174.9 210.2 210 175.4 175.1 140.2 140.3 105.1 105.4 69.9 70.3 104.8 105.2 140 140 175.1 104.9 210 70 174.8 35.1 139.7 0 174.5 34.9 209.7 69.7 244.8 104.6 280 139.7 245.1"/>
  <polygon class="st0" points="600.7 23.8 564.2 23.8 552.9 62.1 589.5 62.1 600.7 23.8"/>
  <path class="st0" d="M639.4,70h-130.9c-17.1,0-30.9,13.9-30.9,30.9v77.9c0,17,13.9,30.9,30.9,30.9h130.9c17,0,30.9-13.9,30.9-30.9v-77.9c0-17.1-13.9-30.9-30.9-30.9M634,173.6h-120.5v-67.4h120.5v67.4Z"/>
  <polygon class="st0" points="718.3 69.9 682.4 69.9 682.4 209.8 822.1 209.8 822.1 173.7 718.3 173.7 718.3 69.9"/>
  <rect class="st0" x="834.2" y="70" width="36.1" height="139.7"/>
  <path class="st0" d="M1044.1,70h-161.6v139.7h161.6c17.2,0,31.1-13.9,31.1-30.9v-77.9c0-17.1-14-30.9-31.1-30.9M1038.8,173.6h-120.5v-67.4h120.5v67.4Z"/>
  <path class="st0" d="M1249.1,70h-130.9c-17.1,0-30.9,13.9-30.9,30.9v77.9c0,17,13.9,30.9,30.9,30.9h130.9c17.1,0,30.9-13.9,30.9-30.9v-77.9c0-17.1-13.9-30.9-30.9-30.9M1243.7,173.6h-120.5v-67.4h120.5v67.4Z"/>
  <path class="st0" d="M434.5,121.8h-125.9v-15.7h152.5,0v-5.2c0-17-14-30.9-31.1-30.9h-126.4c-17,0-30.9,13.9-30.9,30.9v26.1c0,17.1,13.9,30.9,30.9,30.9h121.3c2.3,0,4.2,1.9,4.2,4.2v7.4c0,2.3-1.9,4.1-4.2,4.1h-148v5.2c0,17.1,14,30.9,31.1,30.9h126.5c17.1,0,30.9-13.9,30.9-30.9v-26.1c0-17.1-13.9-30.9-30.9-30.9"/>
  <g>
    <polygon class="st1" points="860.2 383.2 880.6 383.2 880.6 373.6 872.2 373.6 872.2 295.5 880.6 295.5 880.6 285.9 860.2 285.9 860.2 383.2"/>
    <polygon class="st1" points="1134.2 285.9 1134.2 295.5 1142.6 295.5 1142.6 373.6 1134.2 373.6 1134.2 383.2 1154.6 383.2 1154.6 285.9 1134.2 285.9"/>
    <polygon class="st1" points="962 345 961.7 345 950.5 303.3 934.8 303.3 923.6 345 923.3 345 913.4 303.3 897.2 303.3 914.9 365.9 930 365.9 942.4 323.5 942.6 323.5 955 365.9 970 365.9 987.8 303.3 972.1 303.3 962 345"/>
    <path class="st1" d="M1022.6,303.3h-23v62.6h15.1v-23.6h7.5c13.1,0,24.9-5.2,24.9-19.7s-10.8-19.3-24.5-19.3M1021.1,330.3h-6.4v-14.8h6.6c5.4,0,10.6,1.2,10.6,7.2s-5.2,7.6-10.9,7.6"/>
    <path class="st1" d="M1092.9,353.7c-10.4,0-17.8-7.8-17.8-19.2s7.5-19.2,18.1-19.2,9.8,1.9,12.6,5.7l10.3-10.3c-5.2-6-14.7-9.2-23.4-9.2-19.1,0-34,12.8-34,32.9s14.4,33.1,33.7,33.1,18.8-4,24.3-10.4l-10.5-9.9c-2.7,3.7-7.3,6.4-13.3,6.4"/>
    <path class="st1" d="M420.2,283.3c-5.2,0-12.3.4-16.5.6-1.1.1-2.1,1.2-2.1,2.3v85.6c0,1.2.9,2.3,2.1,2.3h1.2c1.2,0,2.1-1.1,2.1-2.3v-36.3c3.4.2,8.5.5,13.2.5,20.6,0,33-6.9,33-26v-2.1c0-17.5-12.4-24.7-33-24.7M447.8,310c0,15.4-8.9,21.3-27.7,21.3s-9.5-.2-13.2-.5v-42.4c3.5-.2,8.1-.4,13.2-.4,18.1,0,27.7,4.9,27.7,19.9v2.1Z"/>
    <path class="st1" d="M517.2,308.9h-.7c-1.2,0-2.3,1.1-2.3,2.3v53.8c-6.1,2.8-13,5-19.2,5h-.2c-9,0-16.2-4.7-16.2-18.5v-40.3c0-1.2-1-2.3-2.2-2.3h-.8c-1.3,0-2.3,1.1-2.3,2.3v40.3c0,16.8,9.7,23.2,21.4,23.2s13.2-1.9,19.6-5v1.9c0,1.3.9,2.4,2.2,2.4h1c1.3,0,2.2-1.1,2.2-2.4v-60.5c0-1.2-1.1-2.3-2.3-2.3"/>
    <path class="st1" d="M566.5,308.3c-16,0-24.5,12.3-24.5,29v8c0,23,12.3,29.5,27.3,29.5s12.4-.9,18.2-2.1c1.8-.4,2.3-1,2.3-2.3v-.9c0-1.2-.9-1.7-1.8-1.7s-.5.1-.7.1c-6,1.2-12.6,2.1-18,2.1-12.1,0-22-4.4-22-24.8v-2.6h41c1.2,0,2.3-1,2.3-2.3v-3.3c0-17.2-7.4-28.9-24.2-28.9M585.3,338h-38v-.6c0-14.5,5.7-24.3,19.2-24.3s18.8,8.9,18.8,24.2v.7Z"/>
    <path class="st1" d="M635.4,308.3c-6,0-10.7,1.6-16.9,5.6v-2.6c0-1.3-.8-2.4-2.2-2.4h-1c-1.3,0-2.2,1.1-2.2,2.4v60.5c0,1.2,1.1,2.3,2.3,2.3h.7c1.2,0,2.3-1.1,2.3-2.3v-53.2c7.2-4.5,12.3-5.6,16.9-5.6s3.3-.4,3.3-1.9v-1c0-1.5-1.3-1.8-3.3-1.8"/>
    <path class="st1" d="M688.5,308.9h-14.5v-12.5c0-1.2-.7-2.3-1.9-2.3h-1.3c-1.3,0-2.1,1.1-2.1,2.3v12.5h-12c-1.3,0-2.3.6-2.3,1.8v1.2c0,1.2,1,1.9,2.3,1.9h12v47.8c0,10.4,5.1,13.1,13.7,13.1s4.5-.1,6.3-.4c1.7-.2,2.1-1,2.1-1.9v-.7c0-1.1-.7-1.7-2.6-1.7h-5.8c-5.3,0-8.4-1.1-8.4-8.4v-47.8h14.5c1.3,0,2.3-.7,2.3-1.9v-1.2c0-1.2-1-1.8-2.3-1.8"/>
    <path class="st1" d="M733.1,308.3c-8,0-12.1.5-17.2,1.1-1.8.2-2.8.8-2.8,2.2v.7c0,1.3,1.2,1.8,2.3,1.8h.5c5.7-.6,9.2-1.1,17.2-1.1,11.8,0,15.3,5,15.3,17.6v4.4h-9.4c-22.1,0-30,6.2-30,18.7v1.6c0,15.2,9.5,19.6,18.6,19.6s14.7-2.9,20.6-6.2v3c0,1.3,1.1,2.4,2.4,2.4h.6c1.3,0,2.4-1.1,2.4-2.4v-41.1c0-13.1-4.3-22.3-20.6-22.3M748.4,363.9c-8.1,4.4-14,6.2-20.8,6.2s-13.2-3.5-13.2-14.8v-1.6c0-10.3,6.3-14,24.7-14h9.4v24.2Z"/>
    <path class="st1" d="M801.4,340.4l-8.1-4.5c-7.4-4.1-11.8-7.3-11.8-12.6,0-8.6,6-10.2,13.7-10.2s13.7,1,16.9,1.3h.4c1.2,0,2.2-.5,2.2-1.9v-1c0-1.1-.9-1.8-2.6-2.1-4.1-.5-8.6-1.1-17.4-1.1s-18.6,3.6-18.6,14.9,5.6,12.3,14.7,17.2l7.8,4.3c10.2,5.6,12.9,8.3,12.9,13.2,0,9.8-6.7,12.1-15.4,12.1s-12-1-17.9-1.9h-.7c-1.1,0-1.9.5-1.9,1.7v1.3c0,1.1,1,1.6,2.7,1.9,4.4.9,12.1,1.7,17.6,1.7,11.3,0,21-3.9,21-16.9s-5.3-12-15.4-17.6"/>
  </g>
</svg>